<svg width="131" height="37" viewBox="0 0 131 37" fill="none" xmlns="http://www.w3.org/2000/svg">
<path d="M41.6649 25.984V15.3245H39V14H46.9947V15.3245H44.3298V25.984H41.6809H41.6649Z" fill="white"/>
<path d="M48.3188 25.984V14H50.9837V19.3138H53.6486V14H56.2976V25.984H53.6486V20.6702H50.9837V25.984H48.3188Z" fill="white"/>
<path d="M58.9795 25.984V14H65.6497V15.3245H61.6603V19.3138H64.3252V20.6543H61.6603V24.6436H65.6497V25.9681H58.9795V25.984Z" fill="white"/>
<path d="M72.2871 25.984V14H72.9094L80.2658 20.6543V14H81.6063V25.984H80.9999L73.6275 19.3298V25.984H72.2871Z" fill="white"/>
<path d="M89.6011 14H92.2501V23.3191C92.2501 24.0372 91.9947 24.6755 91.4681 25.2021C90.9415 25.7287 90.3192 26 89.6011 26H86.9362C86.2181 26 85.5798 25.7447 85.0532 25.2181C84.5266 24.6915 84.2554 24.0691 84.2554 23.3351V14.016H86.9203V23.3351C86.9203 23.7021 87.0479 24.0053 87.3032 24.2766C87.5586 24.5479 87.8777 24.6755 88.2447 24.6755C88.6118 24.6755 88.9309 24.5479 89.2022 24.2766C89.4735 24.0053 89.6011 23.7021 89.6011 23.3351V14.016V14Z" fill="white"/>
<path d="M96.2557 25.984V15.3245H93.5908V14H101.585V15.3245H98.9206V25.984H96.2717H96.2557Z" fill="white"/>
<path d="M114.878 23.3191C114.766 25.0904 113.889 25.984 112.229 25.984H109.564C108.846 25.984 108.224 25.7287 107.681 25.2021C107.155 24.6755 106.883 24.0532 106.883 23.3191V16.6809C106.883 15.9628 107.139 15.3245 107.665 14.7979C108.176 14.2713 108.814 14 109.564 14H112.229C113.905 14 114.782 14.8936 114.878 16.6649H113.554C113.442 15.7713 113.011 15.3245 112.229 15.3245H110.889C110.522 15.3245 110.218 15.4521 109.963 15.7234C109.708 15.9947 109.564 16.2979 109.564 16.6809V23.3191C109.564 23.6862 109.692 23.9894 109.963 24.2606C110.234 24.5319 110.538 24.6596 110.889 24.6596H112.229C113.011 24.6596 113.458 24.2128 113.554 23.3191H114.878Z" fill="white"/>
<path d="M120.223 14H122.888C123.606 14 124.229 14.2553 124.755 14.7979C125.282 15.3245 125.537 15.9468 125.537 16.6809V23.3191C125.537 24.0372 125.282 24.6755 124.755 25.2021C124.229 25.7287 123.606 26 122.888 26H120.223C119.505 26 118.883 25.7447 118.34 25.2181C117.814 24.6915 117.542 24.0691 117.542 23.3351V16.6968C117.542 15.9628 117.814 15.3404 118.34 14.8138C118.867 14.2872 119.489 14.0319 120.223 14.0319V14ZM120.223 16.6649V23.3032C120.223 23.6702 120.351 23.9734 120.622 24.2447C120.894 24.516 121.197 24.6436 121.548 24.6436C121.899 24.6436 122.234 24.516 122.505 24.2447C122.777 23.9734 122.888 23.6702 122.888 23.3032V16.6649C122.888 16.2979 122.761 15.9787 122.505 15.7074C122.25 15.4362 121.931 15.3085 121.548 15.3085C121.165 15.3085 120.878 15.4362 120.622 15.7074C120.367 15.9787 120.223 16.2819 120.223 16.6649Z" fill="white"/>
<path d="M128.202 25.984V23.3192H130.867V25.984H128.202Z" fill="white"/>
<g clip-path="url(#clip0_79_2)">
<path d="M14.9495 33.5403C14.8735 34.2322 14.4431 34.8864 13.7596 35.3771C12.5191 36.2578 11.2279 36.61 10.0507 36.5345C8.73426 36.4465 7.55705 35.8426 6.70895 34.8361C5.26591 33.1251 5.22793 31.5022 5.26591 31.5274C5.7216 31.93 7.67097 35.3142 11.0381 32.2067C12.5064 30.8606 13.9874 31.15 14.5191 31.9426C14.8735 32.4709 15.0127 33.0245 14.9495 33.5403Z" stroke="white" stroke-width="0.75" stroke-miterlimit="10"/>
<path d="M23.3041 34.811C22.5446 35.7168 21.5319 36.2955 20.4053 36.4716C19.1016 36.6729 17.6459 36.3458 16.2408 35.3645C15.5572 34.8739 15.1269 34.2322 15.0509 33.5403C14.9876 33.0245 15.1269 32.4709 15.4813 31.93C16.0129 31.1374 17.494 30.848 18.9623 32.1942C22.3294 35.3016 24.2788 31.9048 24.7345 31.5148C24.7724 31.4771 24.7345 33.1 23.2914 34.8235L23.3041 34.811Z" stroke="white" stroke-width="0.75" stroke-miterlimit="10"/>
<path d="M8.56982 29.9045C9.67439 29.9045 10.5698 29.0258 10.5698 27.9419C10.5698 26.8579 9.67439 25.9793 8.56982 25.9793C7.46525 25.9793 6.56982 26.8579 6.56982 27.9419C6.56982 29.0258 7.46525 29.9045 8.56982 29.9045Z" fill="white" stroke="white" stroke-width="0.75" stroke-miterlimit="10"/>
<path d="M21.4307 29.9045C22.5352 29.9045 23.4307 29.0258 23.4307 27.9419C23.4307 26.8579 22.5352 25.9793 21.4307 25.9793C20.3261 25.9793 19.4307 26.8579 19.4307 27.9419C19.4307 29.0258 20.3261 29.9045 21.4307 29.9045Z" fill="white" stroke="white" stroke-width="0.75" stroke-miterlimit="10"/>
<path d="M29.5316 19.0221V20.2047C29.5316 20.8841 28.8607 21.4376 28.0379 21.4376H1.96193C1.13915 21.4376 0.468262 20.8841 0.468262 20.2047V19.0221C0.468262 18.3428 1.13915 17.7892 1.96193 17.7892H28.0379C28.8607 17.7892 29.5316 18.3428 29.5316 19.0221Z" stroke="white" stroke-width="0.75" stroke-miterlimit="10"/>
<path d="M16.5189 5.6236L25.5949 5.64876L25.6835 5.85005L22.8607 17.7892L15.0126 17.7766H14.9873L7.13919 17.7892L4.31641 5.85005L4.41767 5.64876L13.481 5.6236" stroke="white" stroke-width="0.75" stroke-miterlimit="10"/>
<path d="M13.8605 8.8946L13.582 6.45393L12.8984 0.729691L15.0377 1.53486L17.101 0.729691L16.4301 6.45393L16.1389 8.88202" stroke="white" stroke-width="0.75" stroke-miterlimit="10"/>
<path d="M18.6962 12.7192C18.6962 12.7192 18.6076 12.7821 18.5569 12.8198C18.3924 12.933 18.2152 13.0337 18 13.1343H17.9747C17.2785 13.474 16.3418 13.7382 15.2911 13.8766C14.6835 13.9521 14.1139 13.9647 13.5823 13.9395C13.4936 13.9395 13.405 13.9395 13.3164 13.9269C13.0253 13.9017 12.7595 13.864 12.5063 13.8137H12.443C12.443 13.8137 12.405 13.7885 12.3797 13.7885H12.3164C12.3164 13.7885 12.2405 13.7508 12.2025 13.7382C12.1266 13.713 12.0633 13.7005 12 13.6753C11.8734 13.6376 11.7468 13.5872 11.6455 13.5243C11.2911 13.3482 11.0633 13.1092 11.0253 12.845C11 12.6185 11.1012 12.3921 11.3164 12.1656C11.3797 12.1027 11.481 12.065 11.519 11.9769C11.6709 11.6875 11.6076 11.3353 11.6962 11.0333C11.9367 10.2156 12.1139 10.3037 12.4683 9.76268L12.4936 9.72494C12.8481 9.14622 13.2531 9.19655 13.5823 8.93235C13.962 8.63041 14.4177 8.69332 14.8607 8.60525C15.2658 8.51719 15.8481 8.75622 16.2531 8.78138C16.6329 8.80654 17.1519 9.3601 17.5949 9.62429C17.8228 9.76268 17.924 9.96397 18 10.1024C18.038 10.1778 18.0759 10.2407 18.1012 10.2785C18.519 10.6182 18.4683 11.0837 18.6202 11.1969C18.924 11.3982 19.1392 11.5869 19.1645 11.8511C19.2025 12.1404 19.0126 12.4424 18.6709 12.7192H18.6962ZM18.0126 13.1469H17.9873C17.2911 13.4866 16.3544 13.7508 15.3038 13.8892C14.6962 13.9647 14.1266 13.9772 13.5949 13.9521C13.5063 13.9521 13.4177 13.9521 13.3291 13.9395C13.038 13.9143 12.7721 13.8766 12.519 13.8263H12.4557C12.4557 13.8263 12.4177 13.8011 12.3924 13.8011H12.3291C12.3291 13.8011 12.2531 13.7634 12.2152 13.7508C12.1392 13.7256 12.0759 13.713 12 13.6879C12.2785 14.1659 12.2531 14.405 12.443 14.6692C12.4683 14.6943 12.481 14.7195 12.5063 14.7447C12.5949 14.8453 12.7215 14.946 12.9114 15.0718C13.2911 15.3234 13.8734 15.7511 14.5063 15.6127C15.1645 15.4743 15.9114 15.9021 16.5696 15.424C16.924 15.1724 17.1266 15.2101 17.481 14.7572C17.6582 14.5434 17.7215 14.4176 17.9747 14.1659L18 14.1408C18 14.1408 18.1266 14.015 18.2025 13.9395C18.4936 13.6627 18.4683 13.1092 18.5443 12.8072C18.3797 12.9204 18.2025 13.0211 17.9873 13.1217L18.0126 13.1469Z" stroke="white" stroke-width="0.75" stroke-miterlimit="10"/>
<path d="M18.0381 11.8511C17.1014 12.3417 16.0634 12.6311 15.0128 12.7192M12.3672 12.4424C12.8609 12.5934 13.3798 12.6814 13.8988 12.7192" stroke="white" stroke-width="0.75" stroke-miterlimit="10"/>
</g>
<defs>
<clipPath id="clip0_79_2">
<rect width="30" height="37" fill="white"/>
</clipPath>
</defs>
</svg>
