<svg width="18" height="18" viewBox="0 0 18 18" fill="none" xmlns="http://www.w3.org/2000/svg">
<g clip-path="url(#clip0_72_602)">
<path d="M8.13332 14.2191C7.24925 14.2191 6.54199 14.9877 6.54199 15.9484C6.54199 16.9092 7.24925 17.6777 8.13332 17.6777C9.0174 17.6777 9.72466 16.9092 9.72466 15.9484C9.72466 14.9877 9.0174 14.2191 8.13332 14.2191Z" fill="white"/>
<path d="M13.7915 14.2191C12.9075 14.2191 12.2002 14.9877 12.2002 15.9484C12.2002 16.9092 12.9075 17.6777 13.7915 17.6777C14.6756 17.6777 15.3829 16.9092 15.3829 15.9484C15.3829 14.9877 14.6756 14.2191 13.7915 14.2191Z" fill="white"/>
<path d="M15.5597 10.7604L17.6815 4.61157C17.6815 4.22727 17.6815 3.84297 17.3278 3.65082C17.151 3.65082 16.7974 3.45867 16.6206 3.45867H4.95081L4.24355 0.960729C4.24355 0.57643 3.88992 0.38428 3.53629 0.38428H0.707258C0.353629 -1.88053e-05 0 0.192131 0 0.57643C0 0.960729 0.353629 1.34503 0.707258 1.34503H3.35948L6.36533 13.4505H15.7365C16.2669 13.4505 16.6206 13.0662 16.6206 12.874C16.6206 12.6819 16.2669 12.2976 15.7365 12.2976H6.55288L6.25661 11.1447H8.66392C8.84073 11.1447 9.01754 11.1447 9.19436 10.9525L15.5597 10.7604Z" fill="white"/>
</g>
<defs>
<clipPath id="clip0_72_602">
<rect width="17.8583" height="17.6778" fill="white"/>
</clipPath>
</defs>
</svg>
